arm26_optimize_states
version=1
nRows=24
nColumns=17
inDegrees=yes

# SIMM Motion File Header:
name arm26_optimize_states
datacolumns 17
datarows 24
otherdata 1
range 0.34034132 0.38808503
endheader
time	r_shoulder_elev	r_elbow_flex	r_shoulder_elev_u	r_elbow_flex_u	TRIlong.activation	TRIlong.fiber_length	TRIlat.activation	TRIlat.fiber_length	TRImed.activation	TRImed.fiber_length	BIClong.activation	BIClong.fiber_length	BICshort.activation	BICshort.fiber_length	BRA.activation	BRA.fiber_length
      0.34034132	      6.26193345	      0.77722258	   -407.90309935	    -52.44232933	      0.02000000	      0.14134912	      0.02000000	      0.07082560	      0.10000000	      0.06531489	      0.10000000	      0.14217622	      0.02000000	      0.14721145	      0.02000000	      0.08692019
      0.34252591	      5.37144194	      0.66164243	   -407.33676980	    -53.36717255	      0.02000000	      0.14076018	      0.02000000	      0.07078677	      0.10000000	      0.06527689	      0.10000000	      0.14245240	      0.02000000	      0.14721937	      0.02000000	      0.08691570
      0.34471050	      4.48224382	      0.54406880	   -406.71891710	    -54.26782263	      0.02000000	      0.14017530	      0.02000000	      0.07074732	      0.10000000	      0.06523825	      0.10000000	      0.14272763	      0.02000000	      0.14723863	      0.02000000	      0.08691105
      0.34770250	      3.26670778	      0.37989926	   -405.78729337	    -55.46436175	      0.02000000	      0.13937058	      0.02000000	      0.07069234	      0.10000000	      0.06518437	      0.10000000	      0.14310322	      0.02000000	      0.14729142	      0.02000000	      0.08690442
      0.35000018	      2.33523092	      0.25141797	   -404.99982122	    -56.37092860	      0.02000000	      0.13875804	      0.02000000	      0.07064940	      0.10000000	      0.06514226	      0.10000000	      0.14338937	      0.02000000	      0.14735809	      0.02000000	      0.08689911
      0.35229786	      1.40563978	      0.12085442	   -404.14519757	    -57.27874780	      0.02000000	      0.13814269	      0.02000000	      0.07060586	      0.10000000	      0.06509955	      0.10000000	      0.14367484	      0.02000000	      0.14744818	      0.02000000	      0.08689362
      0.35502652	      0.30435319	     -0.03693193	   -403.03776934	    -58.37746134	      0.02000000	      0.13741556	      0.02000000	      0.07055339	      0.10000000	      0.06504805	      0.10000000	      0.14401165	      0.02000000	      0.14758132	      0.02000000	      0.08688685
      0.35775518	     -0.79377149	     -0.19775722	   -401.82725302	    -59.50761498	      0.02000000	      0.13668970	      0.02000000	      0.07050011	      0.10000000	      0.06499573	      0.10000000	      0.14434618	      0.02000000	      0.14773865	      0.02000000	      0.08687981
      0.36048384	     -1.88845092	     -0.36171644	   -400.51234386	    -60.67556565	      0.02000000	      0.13596726	      0.02000000	      0.07044599	      0.10000000	      0.06494260	      0.10000000	      0.14467832	      0.02000000	      0.14791751	      0.02000000	      0.08687248
      0.36321250	     -2.97939959	     -0.52891751	   -399.09271907	    -61.88427477	      0.02000000	      0.13524742	      0.02000000	      0.07039105	      0.10000000	      0.06488863	      0.10000000	      0.14500789	      0.02000000	      0.14811687	      0.02000000	      0.08686485
      0.36594115	     -4.06633157	     -0.69947565	   -397.56838570	    -63.13617981	      0.02000000	      0.13453125	      0.02000000	      0.07033524	      0.10000000	      0.06483383	      0.10000000	      0.14533482	      0.02000000	      0.14833644	      0.02000000	      0.08685690
      0.36935384	     -5.41964889	     -0.91769874	   -395.51455229	    -64.76685574	      0.02000000	      0.13363094	      0.02000000	      0.07026422	      0.10000000	      0.06476408	      0.10000000	      0.14574019	      0.02000000	      0.14863113	      0.02000000	      0.08684649
      0.37092616	     -6.04074201	     -1.02014593	   -394.51282540	    -65.55005592	      0.02000000	      0.13320896	      0.02000000	      0.07023102	      0.10000000	      0.06473148	      0.10000000	      0.14592456	      0.02000000	      0.14878909	      0.02000000	      0.08684152
      0.37249848	     -6.66023196	     -1.12384458	   -393.47523107	    -66.35942935	      0.02000000	      0.13278505	      0.02000000	      0.07019752	      0.10000000	      0.06469858	      0.10000000	      0.14610850	      0.02000000	      0.14893825	      0.02000000	      0.08683642
      0.37452661	     -7.45685207	     -1.25951836	   -392.08486701	    -67.43920773	      0.02000000	      0.13223986	      0.02000000	      0.07015385	      0.10000000	      0.06465571	      0.10000000	      0.14634437	      0.02000000	      0.14914663	      0.02000000	      0.08682966
      0.37640268	     -8.19118252	     -1.38700550	   -390.74644101	    -68.47637968	      0.02000000	      0.13173811	      0.02000000	      0.07011298	      0.10000000	      0.06461558	      0.10000000	      0.14656092	      0.02000000	      0.14934001	      0.02000000	      0.08682322
      0.37804122	     -8.83044993	     -1.49996839	   -389.53696152	    -69.40963317	      0.02000000	      0.13130208	      0.02000000	      0.07007690	      0.10000000	      0.06458017	      0.10000000	      0.14674882	      0.02000000	      0.14953862	      0.02000000	      0.08681744
      0.37941666	     -9.36552077	     -1.59599050	   -388.49208584	    -70.21720016	      0.02000000	      0.13093770	      0.02000000	      0.07004633	      0.10000000	      0.06455016	      0.10000000	      0.14690563	      0.02000000	      0.14967521	      0.02000000	      0.08681247
      0.38079211	     -9.89913637	     -1.69313507	   -387.42097564	    -71.04117006	      0.02000000	      0.13057487	      0.02000000	      0.07001549	      0.10000000	      0.06451990	      0.10000000	      0.14706161	      0.02000000	      0.14984338	      0.02000000	      0.08680739
      0.38225069	    -10.46337638	     -1.79740514	   -386.25611383	    -71.93774832	      0.02000000	      0.13019185	      0.02000000	      0.06998250	      0.10000000	      0.06448753	      0.10000000	      0.14722608	      0.02000000	      0.15000409	      0.02000000	      0.08680188
      0.38370928	    -11.02589576	     -1.90299842	   -385.06172883	    -72.85324375	      0.02000000	      0.12981069	      0.02000000	      0.06994920	      0.10000000	      0.06445486	      0.10000000	      0.14738957	      0.02000000	      0.15024309	      0.02000000	      0.08679624
      0.38516786	    -11.58665146	     -2.00994787	   -383.83784715	    -73.79729625	      0.02000000	      0.12943144	      0.02000000	      0.06991559	      0.10000000	      0.06442188	      0.10000000	      0.14755206	      0.02000000	      0.15036057	      0.02000000	      0.08679047
      0.38662644	    -12.14560064	     -2.11828510	   -382.58443558	    -74.75593438	      0.02000000	      0.12905416	      0.02000000	      0.06988165	      0.10000000	      0.06438860	      0.10000000	      0.14771355	      0.02000000	      0.15064443	      0.02000000	      0.08678456
      0.38808503	    -12.70270101	     -2.22804403	   -381.30273338	    -75.74559056	      0.02000000	      0.12867890	      0.02000000	      0.06984740	      0.10000000	      0.06435500	      0.10000000	      0.14787401	      0.02000000	      0.15073732	      0.02000000	      0.08677850
